<svg xmlns="http://www.w3.org/2000/svg" width="24" height="24" viewBox="0 0 24 24">
  <g id="email-icon" transform="translate(-748 -250)">
    <g id="sms-edit" transform="translate(748 250)">
      <path id="Vector" d="M10,17H5c-3,0-5-1.5-5-5V5C0,1.5,2,0,5,0H15c3,0,5,1.5,5,5V8" transform="translate(2 3.5)" fill="none" stroke="#74fbdf" stroke-linecap="round" stroke-linejoin="round" stroke-width="1.6"/>
      <path id="Vector-2" data-name="Vector" d="M10,0,6.87,2.5a3.166,3.166,0,0,1-3.75,0L0,0" transform="translate(7 9)" fill="none" stroke="#74fbdf" stroke-linecap="round" stroke-linejoin="round" stroke-width="1.6"/>
      <g id="Group" transform="translate(15.171 14.197)">
        <path id="Vector-3" data-name="Vector" d="M4.039.573.5,4.113a1.232,1.232,0,0,0-.3.59l-.19,1.35a.635.635,0,0,0,.76.76l1.35-.19a1.189,1.189,0,0,0,.59-.3l3.54-3.54a1.365,1.365,0,0,0,0-2.22A1.361,1.361,0,0,0,4.039.573Z" fill="none" stroke="#74fbdf" stroke-linecap="round" stroke-linejoin="round" stroke-width="1.6"/>
        <path id="Vector-4" data-name="Vector" d="M0,0A3.185,3.185,0,0,0,2.22,2.22" transform="translate(3.529 1.083)" fill="none" stroke="#74fbdf" stroke-linecap="round" stroke-linejoin="round" stroke-width="1.6"/>
      </g>
      <path id="Vector-5" data-name="Vector" d="M0,0H24V24H0Z" fill="none" opacity="0"/>
    </g>
  </g>
</svg>
