<svg xmlns="http://www.w3.org/2000/svg" xmlns:xlink="http://www.w3.org/1999/xlink" width="98" height="98" viewBox="0 0 98 98">
  <defs>
    <clipPath id="clip-path">
      <rect id="Rectangle_374" data-name="Rectangle 374" width="82" height="94" fill="none"/>
    </clipPath>
  </defs>
  <g id="Compliance_Support_Icon" data-name="Compliance Support Icon" transform="translate(-712 -1287)">
    <g id="Compliance_Support_Icon-2" data-name="Compliance Support Icon" transform="translate(720 1289)">
      <path id="Path_92" data-name="Path 92" d="M5.5,10.879V33.208l11.762,6.459V55.333H32.945V39.666l11.762-6.459V10.879L25.1.5Z" transform="translate(16.064 1.457)" fill="#fff"/>
      <path id="Path_93" data-name="Path 93" d="M.5,29.753v9.788H78.916V29.753L39.708,18Z" transform="translate(1.461 52.498)" fill="#fff"/>
      <path id="Path_94" data-name="Path 94" d="M10.5,55.33h7.842V39.663L30.1,33.2V10.876L10.5.5Z" transform="translate(30.669 1.46)" fill="#74fbdf"/>
      <path id="Path_95" data-name="Path 95" d="M8.931,30.294l6.156,9.247h.243L21.34,30.5,15.086,18Z" transform="translate(26.084 52.5)" fill="#b2f4e7"/>
      <g id="Group_130" data-name="Group 130">
        <g id="Group_129" data-name="Group 129" clip-path="url(#clip-path)">
          <path id="Path_96" data-name="Path 96" d="M19.96,8.917H27.8A1.958,1.958,0,1,0,27.8,5H19.96a1.958,1.958,0,1,0,0,3.917" transform="translate(52.574 14.583)" fill="#ec7d9f"/>
          <path id="Path_97" data-name="Path 97" d="M17.914,12.057l5.544,3.917a1.958,1.958,0,1,0,2.262-3.2L20.176,8.861a1.958,1.958,0,1,0-2.262,3.2" transform="translate(49.904 24.791)" fill="#ec7d9f"/>
          <path id="Path_98" data-name="Path 98" d="M20.11,7.269l5.544-3.58A1.959,1.959,0,0,0,23.525.4l-5.544,3.58a1.959,1.959,0,1,0,2.129,3.29" transform="translate(49.903 0.251)" fill="#ec7d9f"/>
          <path id="Path_99" data-name="Path 99" d="M9.8,5H1.96a1.958,1.958,0,1,0,0,3.917H9.8A1.958,1.958,0,1,0,9.8,5" transform="translate(0 14.583)" fill="#ec7d9f"/>
          <path id="Path_100" data-name="Path 100" d="M7.873,8.859,2.329,12.776a1.958,1.958,0,1,0,2.262,3.2l5.544-3.917a1.958,1.958,0,1,0-2.262-3.2" transform="translate(4.379 24.793)" fill="#ec7d9f"/>
          <path id="Path_101" data-name="Path 101" d="M10.154,3.979,4.61.4A1.959,1.959,0,1,0,2.481,3.69l5.544,3.58a1.959,1.959,0,0,0,2.129-3.29" transform="translate(4.631 0.251)" fill="#ec7d9f"/>
          <path id="Path_102" data-name="Path 102" d="M82.336,41V31.208a1.958,1.958,0,0,0-1.4-1.876L41.733,17.582c-.09-.027-.18.012-.274,0s-.184-.082-.29-.082-.188.067-.29.082-.184-.027-.274,0L1.4,29.332A1.958,1.958,0,0,0,0,31.208V41a1.96,1.96,0,0,0,3.921,0V32.665l12.139-3.639-2.192,5.358a1.962,1.962,0,0,0,.941,2.491l11.762,5.875a1.958,1.958,0,0,0,1.753-3.5L18.185,34.185l2.7-6.6,7.508-2.252L39.537,42.081a1.921,1.921,0,0,0,1.506.838,1.9,1.9,0,0,0,.259,0c.082-.008.161.012.239,0a1.927,1.927,0,0,0,1.506-.838l11.1-16.689,7.587,2.272,2.662,6.521L54.259,39.249a1.958,1.958,0,1,0,1.753,3.5l11.762-5.875a1.956,1.956,0,0,0,.937-2.491l-2.152-5.276,11.856,3.556V41a1.96,1.96,0,0,0,3.921,0ZM32.319,24.154l5.066-1.52-2.607,5.213ZM41.29,37.643l-4.011-6.032,3.889-7.775,4,7.982Zm6.375-9.584-2.713-5.425,5.27,1.578Z" transform="translate(0 51.042)" fill="#101031"/>
          <path id="Path_103" data-name="Path 103" d="M6.015,36.379l10.747,5.9V56.793a1.96,1.96,0,0,0,1.96,1.958H24.6V60.71a1.96,1.96,0,0,0,3.921,0V58.751h5.881a1.96,1.96,0,0,0,1.96-1.958V42.282l10.747-5.9a1.961,1.961,0,0,0,1.015-1.715V12.335A1.966,1.966,0,0,0,47.085,10.6L27.482.229a1.951,1.951,0,0,0-1.835,0L6.043,10.6A1.959,1.959,0,0,0,5,12.335V34.664a1.961,1.961,0,0,0,1.015,1.715M32.445,47H20.683V43.085H32.445ZM20.683,50.918H32.445v3.917H20.683ZM8.921,13.514,26.564,4.177l17.643,9.337V33.509L33.9,39.168H28.525v-12.9l5.309-5.3A1.96,1.96,0,0,0,31.057,18.2l-4.493,4.492L22.071,18.2A1.96,1.96,0,0,0,19.3,20.967l5.309,5.3v12.9H19.225l-10.3-5.66Z" transform="translate(14.604 -0.001)" fill="#101031"/>
        </g>
      </g>
    </g>
    <rect id="Rectangle_385" data-name="Rectangle 385" width="98" height="98" transform="translate(712 1287)" fill="none"/>
  </g>
</svg>
