<svg xmlns="http://www.w3.org/2000/svg" xmlns:xlink="http://www.w3.org/1999/xlink" width="98" height="98" viewBox="0 0 98 98">
  <defs>
    <clipPath id="clip-path">
      <rect id="Rectangle_372" data-name="Rectangle 372" width="92" height="94" fill="none"/>
    </clipPath>
  </defs>
  <g id="Remediation_Support_Icon" data-name="Remediation Support Icon" transform="translate(-1232 -1526)">
    <g id="Remediation_Support_Icon-2" data-name="Remediation Support Icon" transform="translate(1235 1528)">
      <path id="Path_80" data-name="Path 80" d="M3,.5V67.083H6.919l3.915-15.667L4.957.5Z" transform="translate(8.744 1.459)" fill="#74fbdf"/>
      <rect id="Rectangle_371" data-name="Rectangle 371" width="7.83" height="70.5" transform="translate(70.468 5.875)" fill="#74fbdf"/>
      <path id="Path_81" data-name="Path 81" d="M10,.5V65.125l7.83,7.829V4.417L13.915.5Z" transform="translate(29.149 1.459)" fill="#ec7d9f"/>
      <g id="Group_126" data-name="Group 126">
        <g id="Group_125" data-name="Group 125" clip-path="url(#clip-path)">
          <path id="Path_82" data-name="Path 82" d="M26.5,4.492,22.588.576A1.965,1.965,0,0,0,21.2,0h-7.83a1.965,1.965,0,0,0-1.386.576L8.072,4.492A1.964,1.964,0,0,0,7.5,5.875V74.417l0,.012a1.915,1.915,0,0,0,.164.783L15.5,92.837a1.957,1.957,0,0,0,3.578,0l7.83-17.625a1.911,1.911,0,0,0,.164-.779l0-.016V5.875A1.964,1.964,0,0,0,26.5,4.492M11.415,15.667H23.16v3.917H11.415Zm0,7.833H23.16V69.689L18.673,65.2a1.956,1.956,0,0,0-2.772,0l-4.486,4.488ZM14.183,3.917h6.209L23.16,6.686V11.75H11.415V6.686Zm3.1,83.3-5.5-12.369,5.5-5.5,5.5,5.5Z" transform="translate(21.862 0)" fill="#101031"/>
          <path id="Path_83" data-name="Path 83" d="M23.1,75.2l-5.313-7.085,3.688-14.762.047-.7L15.648,1.735A1.963,1.963,0,0,0,13.7,0H9.788A1.963,1.963,0,0,0,7.842,1.735L1.97,52.652l.047.7L5.7,68.115.392,75.2A1.956,1.956,0,0,0,.3,77.413L10.085,93.08a1.957,1.957,0,0,0,3.32,0l9.787-15.667A1.956,1.956,0,0,0,23.1,75.2M11.534,3.917h.423L17.59,52.746,14.133,66.583H9.357L5.9,52.746Zm.211,84.432L4.33,76.477,8.809,70.5h.979v5.875a1.957,1.957,0,1,0,3.915,0V70.5h.979l4.479,5.977Z" transform="translate(-0.001)" fill="#101031"/>
          <path id="Path_84" data-name="Path 84" d="M42.975,38.849,46.8,14.006a1.952,1.952,0,0,0-1.934-2.256H35.074V5.875a1.952,1.952,0,0,0-1.957-1.958H27.245V1.958a1.957,1.957,0,1,0-3.915,0V3.917H17.457A1.952,1.952,0,0,0,15.5,5.875v70.5l.012.059a2.087,2.087,0,0,0,.074.372,1.846,1.846,0,0,0,.1.376c.012.024.008.047.02.071l7.83,15.667a1.957,1.957,0,0,0,3.5,0l7.83-15.667c.012-.024.008-.047.02-.071a1.845,1.845,0,0,0,.1-.376,2.088,2.088,0,0,0,.074-.372l.012-.059V15.667h7.5l-3.566,23.2a1.939,1.939,0,0,0,.184,1.175l1.957,3.917a1.958,1.958,0,1,0,3.5-1.755ZM19.415,27.417H31.16v47H19.415ZM31.16,23.5H19.415V7.833H31.16ZM25.287,87.663l-4.663-9.329H29.95Z" transform="translate(45.181)" fill="#101031"/>
        </g>
      </g>
    </g>
    <rect id="Rectangle_388" data-name="Rectangle 388" width="98" height="98" transform="translate(1232 1526)" fill="none"/>
  </g>
</svg>
