<svg xmlns="http://www.w3.org/2000/svg" xmlns:xlink="http://www.w3.org/1999/xlink" width="98" height="98" viewBox="0 0 98 98">
  <defs>
    <clipPath id="clip-path">
      <rect id="Rectangle_380" data-name="Rectangle 380" width="94" height="86" fill="none"/>
    </clipPath>
  </defs>
  <g id="Training_Icon" data-name="Training Icon" transform="translate(-712 -1526)">
    <g id="Training_Icon-2" data-name="Training Icon" transform="translate(714 1532)">
      <rect id="Rectangle_379" data-name="Rectangle 379" width="11.789" height="5.86" transform="translate(41.261 78.186)" fill="#74fbdf"/>
      <path id="Path_105" data-name="Path 105" d="M63.238,20.824l11.927,5.082L63.371,30.932V45.455L47.656,53.273,31.934,45.455V43.84l-7.05,5.183,1.159,2.295H21.768L.5,66.955H90.879V.5Z" transform="translate(1.466 1.455)" fill="#74fbdf"/>
      <g id="Group_134" data-name="Group 134">
        <g id="Group_133" data-name="Group 133" clip-path="url(#clip-path)">
          <path id="Path_106" data-name="Path 106" d="M19.011,32.988,13.325,21.675V8.455a1.965,1.965,0,0,0-3.93,0V21.675L3.709,32.988a1.935,1.935,0,0,0,.086,1.9,1.955,1.955,0,0,0,1.67.926H17.255a1.955,1.955,0,0,0,1.67-.926,1.935,1.935,0,0,0,.086-1.9M8.645,31.909l2.715-5.4,2.715,5.4Z" transform="translate(10.253 18.909)" fill="#ec7d9f"/>
          <path id="Path_107" data-name="Path 107" d="M93.738.571A1.991,1.991,0,0,0,92.347,0H1.965A1.991,1.991,0,0,0,.574.571,1.97,1.97,0,0,0,0,1.955V68.409a1.954,1.954,0,0,0,.574,1.38,1.978,1.978,0,0,0,1.391.575H39.3V82.091H25.543a1.955,1.955,0,1,0,0,3.909H68.769a1.955,1.955,0,1,0,0-3.909H55.015V70.364H92.347a1.962,1.962,0,0,0,1.391-.575,1.938,1.938,0,0,0,.574-1.38V1.955A1.97,1.97,0,0,0,93.738.571M3.93,3.909H90.382V66.455H3.93ZM51.086,82.091H43.226V70.364h7.859Z" fill="#101031"/>
          <path id="Path_108" data-name="Path 108" d="M35.353,46.294l15.719-7.818a1.952,1.952,0,0,0,1.085-1.747V23.5l10.6-4.515a1.95,1.95,0,0,0,0-3.592L35.247,3.661a1.939,1.939,0,0,0-1.548,0L6.191,15.388a1.95,1.95,0,0,0,0,3.592l10.6,4.515V36.728a1.952,1.952,0,0,0,1.085,1.747l15.719,7.818a1.965,1.965,0,0,0,1.76,0m-.88-38.712,22.521,9.6-22.521,9.6-22.521-9.6ZM20.719,25.173,33.7,30.708a1.972,1.972,0,0,0,1.548,0l12.98-5.535V35.52L34.472,42.361,20.719,35.52Z" transform="translate(14.648 10.181)" fill="#101031"/>
        </g>
      </g>
    </g>
    <rect id="Rectangle_387" data-name="Rectangle 387" width="98" height="98" transform="translate(712 1526)" fill="none"/>
  </g>
</svg>
